# xmcd
#
# Track frame offsets: 
#        150
#        21952
#        48613
#        66100
#        85365
#        118086
#        146824
#        166779
#        197079
#        211878
#        230426
#        250361
#        280910
#        309089
#
# Disc length: 4359 seconds
#
# Revision: 1
# Processed by: cddbd v1.5.2PL0 Copyright (c) Steve Scherf et al.
# Submitted via: ExactAudioCopy v1.0b3
#
DISCID=c911050e
DTITLE=Various Artist - Jazz Magazine 49
DYEAR=2006
DGENRE=Jazz
TTITLE0=The Classical Jazz Quartet - March from the Nutcracker
TTITLE1=Stefano Bollani - Scartabello
TTITLE2=Simone Zanchini and Frank Marocco - Yardbird Suite
TTITLE3=Hunter - Smith - Ranglin - Mestre Tata
TTITLE4=Giovanni Falzone - Pericoloso pensare
TTITLE5=Nicola Andrioli - Haiku
TTITLE6=Brancaleoni and Sellani - More (theme from Mondo Cane)
TTITLE7=Jean Jaques Elangue and Los Africanos - Jonjoo
TTITLE8=Franziska Baumann - Jurg Solothurnmann - Shristoph Baumann - I
TTITLE8=t
TTITLE9=Lars Danielsson - Bacchanalia
TTITLE10=Horacio "El Negro" Hernandez - Meridien
TTITLE11=Tomasz Stanko quartet - Sweet thing
TTITLE12=Leucasia - Tarantella di Lacedonia
TTITLE13=Jaco Pastorius Big Band - Reza
EXTD=YEAR: 2006
EXTT0=
EXTT1=
EXTT2=
EXTT3=
EXTT4=
EXTT5=
EXTT6=
EXTT7=
EXTT8=
EXTT9=
EXTT10=
EXTT11=
EXTT12=
EXTT13=
PLAYORDER=
